<mxfile host="app.diagrams.net" modified="2023-07-31T11:09:49.329Z" agent="Mozilla/5.0 (Windows NT 10.0; Win64; x64) AppleWebKit/537.36 (KHTML, like Gecko) Chrome/115.0.0.0 Safari/537.36" version="21.6.6" etag="MlFZZA-NuPeWT7ln4eOz" type="github">
  <diagram name="Trang-1" id="_AZZmB38dTQ0q4q05li4">
    <mxGraphModel>
      <root>
        <mxCell id="0" />
        <mxCell id="1" parent="0" />
      </root>
    </mxGraphModel>
  </diagram>
</mxfile>
